<svg width="170" height="220" viewBox="0 0 170 220" fill="none" xmlns="http://www.w3.org/2000/svg">
<path d="M84.0551 207.889C78.5687 173.147 73.53 151.708 62.653 137.935C51.8142 124.213 34.9305 117.855 7.56386 110.93L3.89864 110.004L7.56386 109.077C34.9267 102.149 51.8104 95.7949 62.653 82.0722C73.53 68.2997 78.5649 46.8601 84.0551 12.1188L85.0001 6.13593L85.9451 12.1188C91.4314 46.8601 96.4701 68.2997 107.347 82.0722C118.186 95.7949 135.07 102.153 162.436 109.077L166.101 110.004L162.436 110.93C135.073 117.858 118.19 124.213 107.347 137.935C96.4701 151.708 91.4352 173.144 85.9451 207.889L85.0001 213.872L84.0551 207.889Z" fill="#FFA960"/>
<path d="M85 12.2605C96.3323 84.0168 105.522 95.6495 162.199 110C105.522 124.35 96.3323 135.979 85 207.74C73.6677 135.983 64.4779 124.35 7.80101 110C64.4779 95.6495 73.6677 84.0206 85 12.2605ZM85 0L83.11 11.9619C77.6466 46.5463 72.65 67.8634 61.903 81.4713C51.2326 94.9796 34.4905 101.269 7.33042 108.144L0 110L7.33042 111.856C34.4905 118.731 51.2326 125.02 61.903 138.529C72.65 152.137 77.6466 173.454 83.11 208.038L85 220L86.89 208.038C92.3534 173.454 97.35 152.137 108.097 138.529C118.767 125.02 135.51 118.731 162.67 111.856L170 110L162.67 108.144C135.51 101.269 118.767 94.9796 108.097 81.4713C97.35 67.8634 92.3534 46.5463 86.89 11.9619L85 0Z" fill="#CF412D"/>
</svg>
