<svg width="264" height="264" viewBox="0 0 264 264" fill="none" xmlns="http://www.w3.org/2000/svg">
<path d="M132.022 82.8895L159.622 0L151.284 87.0138L210.05 22.594L167.246 98.6694L246.968 63.7922L177.1 115.794L264 116.601L179.151 135.519L258.248 171.786L173.042 154.392L230.649 219.843L159.889 169.096L186.017 252.479L141.876 177.166L132.022 264L122.169 177.166L78.0274 252.479L104.155 169.096L33.3511 219.843L90.9576 154.392L5.75173 171.786L84.8492 135.519L0 116.601L86.9448 115.794L17.0768 63.7922L96.7985 98.6694L53.9949 22.594L112.716 87.0138L104.423 0L132.022 82.8895Z" fill="#F0A919"/>
</svg>
