<svg width="402" height="119" viewBox="0 0 402 119" fill="none" xmlns="http://www.w3.org/2000/svg">
<path d="M50.3833 106.05C50.3833 116.297 43.3622 118.144 23.532 118.144H0V115.191H0.758676C2.37086 115.191 3.60698 113.899 3.60698 112.422V83.8973C3.60698 82.3263 2.37413 81.1285 0.758676 81.1285H0V78.1748H21.7269C31.5962 78.1748 41.4623 78.7266 41.4623 86.2992C41.4623 89.8989 38.9018 92.3008 35.6741 93.7777C46.3969 94.9786 50.38 98.3933 50.38 106.057L50.3833 106.05ZM35.7722 105.68C35.7722 98.6627 29.6047 97.9259 24.4804 97.9259C23.9114 97.8317 23.4372 98.2959 23.4372 98.8477V99.4027H20.4025V91.5575H23.4372V92.2034C23.4372 92.7585 23.9114 93.2194 24.5752 93.1252C27.4202 92.8493 31.1221 91.3725 31.1221 86.2927C31.1221 81.2129 26.1874 81.122 21.7269 81.122H18.1199V113.155H23.5288C28.5583 113.155 35.7689 113.25 35.7689 105.677L35.7722 105.68Z" fill="#CF412D"/>
<path d="M164.119 81.0344H161.843C160.231 81.0344 158.903 82.2354 158.903 83.8031V118.144H144.387L118.958 84.3582V112.422C118.958 113.899 120.286 115.191 121.803 115.191H124.174V118.144H109.563V115.191H111.365C112.977 115.191 114.213 113.899 114.213 112.422V83.8031C114.213 82.2321 112.981 81.0344 111.365 81.0344H109.563V78.0807H128.824L154.253 111.867V83.8031C154.253 82.2321 152.925 81.0344 151.408 81.0344H149.606V78.0807H164.122V81.0344H164.119Z" fill="#CF412D"/>
<path d="M283.362 115.191H285.923V118.144H261.253V115.191H264.382C265.236 115.191 265.71 114.266 265.236 113.529L258.973 104.853L251.194 113.438C250.625 114.178 251.099 115.194 252.047 115.194H254.801V118.148H237.341V115.194H240.281C241.609 115.194 242.936 114.639 243.79 113.623L255.746 100.422L243.221 83.0663C242.367 81.8653 240.945 81.1285 239.424 81.1285H236.769V78.1748H260.491V81.1285H258.404C257.551 81.1285 257.077 82.0536 257.551 82.7904L263.813 91.4666L271.593 82.8813C272.162 82.1412 271.688 81.1285 270.739 81.1285H268.084V78.1748H285.448V81.1285H282.509C281.181 81.1285 279.853 81.6836 278.996 82.6995L267.041 95.9004L279.471 113.256C280.419 114.457 281.841 115.194 283.362 115.194V115.191Z" fill="#CF412D"/>
<path d="M356.136 72.8158C356.136 76.4155 352.339 81.1252 346.649 81.1252V100.513C346.649 110.299 338.585 118.144 328.621 118.144H310.877C300.913 118.144 292.849 110.299 292.849 100.513V81.1252H289.242V78.0773H310.972V81.1252H307.365V105.404C307.365 109.929 311.162 113.529 315.809 113.529H323.778C328.333 113.529 332.127 109.929 332.127 105.404V81.1252H328.52V78.0773H346.643C349.962 78.0773 349.298 74.3835 349.298 72.8158H356.13H356.136Z" fill="#CF412D"/>
<path d="M402 115.191V118.144H388.148V115.191H390.139C391.182 115.191 392.225 114.175 391.751 113.159L390.708 109.65H370.593L369.55 113.159C369.076 114.175 369.55 115.191 371.162 115.191H372.111V118.144H347.441V115.191H352.091C353.134 115.191 353.608 114.636 353.608 114.175L368.03 78.1715H388.618V80.6643C388.618 80.7585 385.011 79.6484 385.011 82.6021L397.346 114.175C397.346 114.636 397.916 115.191 398.864 115.191H401.993H402ZM388.148 104.667L380.937 84.634L373.157 104.667H388.148Z" fill="#CF412D"/>
<path fill-rule="evenodd" clip-rule="evenodd" d="M265.543 24.4623L270.896 24.3909L270.89 24.3844C271.367 24.4753 271.717 24.6928 271.939 25.0303C272.162 25.3679 272.168 25.7347 271.959 26.1307L260.373 45.5377L243.659 70.0764C246.864 69.9855 250.644 70.0017 255.003 70.1186C255.896 70.1121 256.517 70.3133 256.867 70.7158C257.217 71.1183 257.319 71.6019 257.171 72.1602L255.399 76.2955C255.222 76.7726 254.882 77.214 254.382 77.6198C253.882 78.0255 253.339 78.2365 252.753 78.2592C247.995 77.9054 243.044 77.9054 237.894 78.2592C235.582 80.6968 234.009 82.2776 233.172 83.0014C231.955 84.0693 230.471 85.254 228.718 86.5491C226.968 87.8475 225.216 88.9413 223.463 89.8372C221.339 90.8295 219.08 91.5895 216.684 92.1155V86.898C217.931 86.1376 219.211 85.2196 220.52 84.144H220.516C222.207 82.7515 224.195 80.8494 226.478 78.441C224.482 78.3677 222.482 78.333 220.477 78.337V78.1715H198.368V81.1252H199.639C200.214 81.1252 200.848 81.2924 201 81.4607C201.561 81.8656 202.105 82.3044 202.158 83.4212C202.16 83.4564 202.161 83.4917 202.161 83.5272V92.6381C201.986 92.5638 201.814 92.4838 201.644 92.3982C200.238 91.6873 199.11 90.9473 198.256 90.1748C197.406 89.4023 196.919 88.9219 196.801 88.7336C196.772 88.6784 196.7 88.5843 196.582 88.4512C196.232 87.9935 195.66 87.26 194.869 86.2505C194.077 85.2411 193.273 84.2056 192.452 83.141C191.631 82.0763 190.987 81.2227 190.516 80.5735C190.251 80.1937 190.078 79.8464 189.996 79.5316C189.914 79.2167 189.898 78.9408 189.944 78.7039C189.993 78.4669 190.068 78.2624 190.173 78.0937C190.277 77.9216 190.385 77.795 190.493 77.7074C190.519 77.7042 190.549 77.6912 190.575 77.662L190.614 77.6198C191.098 77.1329 191.837 76.6006 192.834 76.0228C193.832 75.445 195.146 74.8153 196.782 74.1337C198.417 73.4521 200.84 72.7867 204.054 72.144C206.438 71.7253 208.646 71.4299 210.676 71.2579C212.707 71.0859 214.555 70.943 216.226 70.8262C221.71 70.4854 226.893 70.3133 231.775 70.3004L232.38 69.6966C232.832 69.0702 233.548 68.0769 234.529 66.7104C235.513 65.3472 236.331 64.1105 236.988 63.0069C237.645 61.9033 238.332 60.8809 239.052 59.9396C239.369 59.43 239.604 59.034 239.761 58.7516C239.918 58.4692 240.016 58.2647 240.052 58.1381C240.088 58.0115 240.078 57.9434 240.023 57.9304C239.967 57.9174 239.882 57.9434 239.774 58.0018C239.663 58.0602 239.555 58.1414 239.447 58.242C239.339 58.3459 239.244 58.4238 239.163 58.4822L239.003 58.6542C238.895 58.7711 238.574 59.0859 238.035 59.6052C237.361 60.2966 236.632 60.9458 235.847 61.556C235.059 62.1662 234.271 62.7765 233.486 63.3867C231.089 64.9966 228.273 65.8178 225.039 65.8535C223.531 65.8795 222.25 65.5257 221.19 64.7889C220.13 64.0521 219.13 63.0231 218.188 61.6988C217.9 61.2866 217.694 60.8549 217.55 60.4037C216.648 61.1016 215.758 61.7572 214.882 62.3577C211.926 64.3767 209.79 65.662 208.472 66.2073C207.099 66.7559 205.222 67.1162 202.841 67.285C200.46 67.4537 198.619 67.2849 197.318 66.7786C196.778 66.4962 196.311 66.1099 195.915 65.6263C195.519 65.1427 195.195 64.6558 194.94 64.1657C194.685 63.6756 194.447 63.0751 194.224 62.3642C193.94 61.4327 193.77 60.1603 193.708 58.5406C193.645 56.9209 193.681 55.2655 193.816 53.5712L193.246 54.3021C191.631 56.3742 190.27 58.12 189.159 59.5371C187.919 61.1178 186.781 62.559 185.741 63.8573C184.702 65.1557 184.048 65.9477 183.779 66.2333C182.7 67.2428 181.284 67.8497 179.535 68.051C179.368 68.0575 179.185 68.0769 178.992 68.1126C178.184 68.2263 177.197 68.2847 176.026 68.2847C174.855 68.2879 173.436 68.0412 171.771 67.5479C171.039 67.3271 170.532 67.0123 170.251 66.6066C169.973 66.2008 169.839 65.7691 169.849 65.3115C169.858 64.8538 169.947 64.4221 170.113 64.0131C170.28 63.6041 170.522 63.1335 170.836 62.5947L176.14 54.8014C174.061 55.2136 171.928 55.4473 169.737 55.4895C169.433 55.5284 169.198 55.5674 169.031 55.5999C168.867 55.6323 168.743 55.6875 168.661 55.7589C168.58 55.8336 168.485 55.9115 168.377 55.9991C168.298 56.1127 168.171 56.249 167.994 56.4081C167.821 56.5671 167.556 56.7749 167.203 57.0378L160.744 63.4646C158.148 65.6653 155.427 67.1843 152.585 68.0218C149.74 68.8592 146.993 69.2584 144.341 69.2162C141.715 69.1156 139.456 68.4048 137.566 67.074C135.675 65.7464 134.099 64.2046 132.834 62.4486C132.745 62.309 132.664 62.1662 132.585 62.0234C132.314 62.3675 132.049 62.7018 131.787 63.0264C131.215 63.7405 130.793 64.2695 130.528 64.6104C129.966 65.2401 129.223 65.9249 128.301 66.665C127.379 67.405 126.591 67.9666 125.937 68.3528H125.852C125.224 68.7099 124.482 69.041 123.628 69.3493C122.771 69.6577 121.774 69.8037 120.629 69.7908C119.737 69.768 118.913 69.7713 118.16 69.7972C117.016 69.8687 116.234 69.8135 115.809 69.635C115.721 69.583 115.607 69.5181 115.466 69.4402C115.044 69.3461 114.563 69.0442 114.03 68.5379C113.494 68.0315 113.046 67.0513 112.686 65.5971C112.415 64.3604 112.245 63.1075 112.17 61.8352C112.094 60.566 112.078 59.0275 112.124 57.226L100.848 69.187C100.319 69.8979 99.5075 70.2744 98.4218 70.3133L88.2647 70.6834C86.7605 70.7645 86.2961 70.3101 86.8749 69.3201L88.5165 66.4215C88.4168 66.4914 88.3175 66.5617 88.2185 66.6318L88.2144 66.6347C88.0388 66.759 87.864 66.8828 87.6892 67.0026C84.733 69.0215 82.5976 70.3068 81.2797 70.8521C79.903 71.4007 78.3693 71.748 76.672 71.8941C74.9748 72.0401 72.9735 71.8778 70.668 71.4072C69.9584 71.0988 69.3338 70.6931 68.8008 70.1867C68.2645 69.6804 67.7347 68.7456 67.2115 67.3791C66.7439 66.0093 66.322 64.5033 65.9557 62.8544C65.5862 61.2055 65.4685 59.5338 65.6026 57.8395L64.2029 59.6345C63.271 60.8322 59.3991 66.5059 52.5906 76.6558C45.7822 86.8056 41.3969 92.9272 39.4381 95.0208C38.2674 96.5594 36.4491 97.5688 33.9834 98.046C33.2313 98.1012 32.0246 97.8837 30.3601 97.3903C29.6276 97.1663 29.1207 96.8547 28.8395 96.449C28.5615 96.0433 28.4275 95.6116 28.4373 95.1539C28.4471 94.6962 28.5354 94.2613 28.7022 93.8556C28.8689 93.4466 29.0292 93.1025 29.1861 92.8201C29.2385 92.7357 29.294 92.6643 29.3464 92.6059L29.3823 92.4793C29.4085 92.4793 29.4216 92.4631 29.4216 92.4371L63.2938 41.8893C62.545 42.7462 61.2467 43.5415 59.4056 44.275C57.8915 44.8853 56.8615 45.2683 56.3088 45.4273C55.9458 45.4987 55.6253 45.489 55.3441 45.4014C55.0629 45.3137 54.8013 45.2066 54.5593 45.0768C54.314 44.9469 54.1472 44.7587 54.0557 44.512C53.8693 43.9634 53.8398 43.3143 53.9641 42.5612C54.0884 41.8082 54.3434 41.2889 54.7228 40.9967C54.9386 40.8247 55.7104 40.4092 57.0413 39.7503C58.369 39.0947 59.7294 38.3092 61.1192 37.4003C61.7471 36.9621 62.2147 36.6408 62.5286 36.4363C62.8393 36.2318 65.2625 34.3979 69.7949 30.9378C71.7276 30.3665 73.4804 30.9703 75.0533 32.7393C75.2266 32.8723 75.4 33.0184 75.5733 33.1775C75.9199 33.5248 76.0703 34.2389 76.0278 35.3197C75.2495 37.621 74.4778 39.429 73.7191 40.7436L73.4253 41.2526C72.7782 42.3737 72.1738 43.4208 71.6164 44.3919C70.9722 45.5117 70.4162 46.479 69.9453 47.3002C69.5006 48.0922 69.324 48.605 69.4156 48.8355C69.5071 49.0692 70.9558 47.6248 73.7551 44.5023C76.5543 41.3797 78.5851 39.1174 79.8441 37.7152C81.1031 36.313 82.0678 35.2386 82.7382 34.4953C83.6505 33.5215 84.5433 32.7425 85.4132 32.155C86.2863 31.5675 87.009 31.1391 87.5845 30.8696C87.9672 30.6879 88.2124 30.5678 88.3236 30.5094C88.3498 30.5094 88.3792 30.4931 88.4054 30.4607H88.5296C88.5296 30.4315 88.5558 30.4152 88.6114 30.4152L89.1052 30.2302C89.5205 30.1069 90.0666 30.016 90.7501 29.9641C91.4303 29.9121 91.9273 29.9965 92.2445 30.2205C92.5617 30.4444 93.1209 30.9021 93.9286 31.5935C94.913 32.5835 95.0078 33.9857 94.2099 35.8001C93.412 37.6178 92.3688 39.5166 91.0738 41.5031C90.7337 42.0711 90.3903 42.6099 90.047 43.1195C89.7592 43.6291 89.406 44.2231 88.9842 44.9047C87.1921 47.8228 85.0469 51.2244 82.5387 55.1097C80.0305 58.995 78.2711 61.913 77.2541 63.8606C76.7865 64.7889 76.7211 65.4024 77.0514 65.6945C77.3817 65.9866 77.7087 66.1262 78.0292 66.1164C78.3496 66.1067 78.7911 65.9574 79.3536 65.675C79.916 65.3894 80.3608 65.12 80.6845 64.8571L85.2398 61.2444L95.603 51.7275C96.0052 51.2699 96.4074 50.8317 96.8097 50.4162C97.2152 50.0007 97.9084 49.2055 98.8993 48.0338L98.9798 47.942L99.0271 47.8879L99.0301 47.8844L113.007 23.2159C112.775 22.9757 112.173 22.557 111.202 21.9533C110.345 21.4307 109.423 20.827 108.435 20.1421C107.447 19.4572 106.65 18.7821 106.038 18.1102C105.201 17.3117 104.413 16.6138 103.68 16.0166C102.948 15.4194 102.173 14.6663 101.358 13.7542C101.038 13.4037 100.636 12.9136 100.152 12.2806C99.6678 11.6477 99.2099 11.005 98.7816 10.3558C98.3532 9.70664 98.049 9.19379 97.8659 8.81078C97.7155 8.51216 97.3427 7.83378 96.7442 6.77563C96.1458 5.71748 95.7011 4.57169 95.4035 3.33502L95.9725 2.85788L100.812 0.147583C101.6 1.83543 102.281 3.25063 102.853 4.39317C103.425 5.53571 104.011 6.60684 104.606 7.60982C105.201 8.61279 105.655 9.32363 105.963 9.74234C106.27 10.1611 106.892 10.9336 107.827 12.0631C108.762 13.1927 109.818 14.3937 110.996 15.666C112.173 16.9417 113.239 18.0031 114.191 18.8535L115.315 19.85C115.741 19.3111 116.231 18.6198 116.787 17.7823C117.343 16.9449 117.912 16.0977 118.494 15.2473C119.05 14.4229 119.54 13.6926 119.962 13.0531C120.384 12.4137 120.701 11.982 120.917 11.7515C121.133 11.4951 121.493 11.0245 121.996 10.3428C122.765 9.26196 123.697 8.05774 124.792 6.73019C125.888 5.40263 126.938 4.38668 127.945 3.68557C129.413 2.60794 130.98 1.82245 132.651 1.33232C134.322 0.842197 136.159 0.546824 138.164 0.446202C139.976 0.381285 141.333 0.303384 142.235 0.215746C143.138 0.124862 144.057 0.274172 144.992 0.653937C145.872 1.06616 146.742 1.7413 147.598 2.67935C148.455 3.61741 149.135 4.85408 149.639 6.38613C150.483 9.59304 150.705 12.2189 150.306 14.2541C150.12 15.2311 149.852 16.2633 149.502 17.3571C149.152 18.4477 148.714 19.3923 148.184 20.1875C147.844 20.8075 147.5 21.369 147.157 21.8656C146.814 22.3622 146.372 22.8686 145.833 23.3879C145.345 23.8781 144.603 24.5078 143.599 25.277C142.592 26.0463 141.693 26.6143 140.898 26.9746C140.512 27.1272 140.038 27.296 139.472 27.4842C138.906 27.6725 137.821 27.9062 136.212 28.1853C134.851 28.3736 133.782 28.4807 133 28.5099C132.679 28.5219 132.382 28.5328 132.108 28.5429C131.716 28.5573 131.372 28.5698 131.078 28.5813C130.603 28.5975 129.707 28.5456 128.393 28.4288C127.075 28.3119 125.911 28.1204 124.897 27.851C124.057 27.6887 122.981 27.3122 121.676 26.7214C121.483 26.7864 120.93 27.6562 120.015 29.3376C119.099 31.019 117.997 33.1028 116.709 35.5859C115.42 38.069 114.204 40.4547 113.059 42.7398C111.627 45.5052 110.636 47.3976 110.086 48.4135C109.315 50.2117 109.194 51.0914 109.723 51.0427L112.026 48.7998L119.446 40.0944C120.459 38.8382 121.176 37.8288 121.594 37.066L123.795 33.1645C124.25 32.5932 124.694 32.1615 125.129 31.8694C125.564 31.5772 126.104 31.4604 126.748 31.5188L133.52 31.2721C134.027 31.363 134.41 31.5772 134.675 31.9148C134.936 32.2524 134.992 32.6029 134.838 32.9697C131.019 39.0914 127.314 46.0116 123.72 53.7302C122.382 56.7684 121.535 59.1671 121.182 60.9263C121.087 61.3191 120.976 61.7248 120.852 62.1435C120.659 62.9258 120.508 63.6301 120.407 64.2566C120.306 64.883 120.371 65.318 120.603 65.5582C120.894 65.8795 121.267 65.9996 121.725 65.912C122.18 65.8276 122.824 65.3407 123.658 64.4513C124.302 63.7372 125.322 62.5265 126.725 60.8289C128.128 59.1313 129.59 57.3104 131.107 55.3726C131.813 54.4703 132.654 53.3894 133.628 52.1268C134.197 50.7927 134.842 49.4944 135.574 48.2285C136.993 45.9077 139.011 43.4733 141.624 40.9253C144.237 38.3773 146.274 36.4688 147.732 35.1964C147.87 35.0795 147.991 34.9789 148.099 34.8913C149.397 33.7909 151.431 32.5543 154.198 31.178C156.964 29.805 159.407 28.7469 161.529 28.0036C162.85 27.5686 164.211 27.3576 165.607 27.3771C167.004 27.3966 168.697 27.5751 170.692 27.9192C172.239 28.1951 173.554 28.4872 174.639 28.7923C175.725 29.0974 176.752 29.5096 177.72 30.029C178.832 30.6814 179.499 31.363 179.721 32.0739C179.944 32.7847 180.022 33.4209 179.96 33.9759L179.983 34.5569C179.944 35.0016 179.561 35.9916 178.838 37.5269C178.115 39.0622 177.282 40.7078 176.343 42.4574C175.401 44.2101 174.603 45.5929 173.943 46.6153C173.629 47.1801 173.469 47.5956 173.465 47.8585C173.462 48.1246 173.563 48.2772 173.776 48.3259C173.985 48.3713 174.244 48.3908 174.551 48.3778H174.594L181.078 47.5663L194.591 27.7082C195.673 26.7539 196.608 26.4423 197.403 26.7734C198.198 27.1045 198.894 27.481 199.496 27.9029C199.924 28.247 200.199 28.6462 200.313 29.0974C200.428 29.5486 200.454 29.9998 200.385 30.4444C200.32 30.8891 200.186 31.4085 199.983 31.996L199.034 33.6436C198.393 34.7554 197.858 35.6848 197.426 36.4298C197.203 36.8162 196.98 37.2043 196.755 37.594C196.346 38.3041 195.933 39.0196 195.519 39.7406C195.143 40.3986 194.794 41.004 194.475 41.558C194.252 41.9468 194.042 42.3102 193.848 42.6489C193.076 44.3659 193.74 44.2588 195.846 42.3275C197.952 40.3962 199.692 38.7311 201.062 37.3386C202.436 35.9462 203.75 34.5472 205.009 33.145C206.268 31.7428 207.233 30.6684 207.903 29.9251C208.816 28.9513 209.705 28.1723 210.578 27.5848C211.448 27.0006 212.462 26.4358 213.613 25.897C214.47 25.6146 215.235 25.4491 215.918 25.3971C216.599 25.3452 217.348 25.4231 218.165 25.6276C218.983 25.8321 219.794 26.28 220.601 26.9714C221.586 27.9614 221.68 29.3636 220.883 31.178C220.085 32.9957 219.041 34.8945 217.746 36.881C217.406 37.449 217.063 37.9878 216.72 38.4974C216.432 39.007 216.079 39.601 215.657 40.2826C213.865 43.2007 211.782 46.651 209.404 50.6272C207.024 54.6066 205.33 57.5701 204.313 59.5176C203.845 60.4492 203.701 61.0626 203.878 61.3613C204.054 61.6599 204.408 61.7508 204.934 61.6339C205.461 61.5171 206.003 61.3158 206.566 61.0334C207.128 60.7478 207.573 60.4784 207.897 60.2155L212.452 56.6028L222.815 47.086L222.881 47.0105L222.883 47.0077L222.923 46.9624L222.964 46.9146C222.986 46.8899 223.008 46.8647 223.031 46.8393C223.371 46.3232 223.721 45.7974 224.087 45.2553C225.686 42.5385 227.773 39.8672 230.34 37.238C232.91 34.6121 235.353 32.6192 237.675 31.2592C239.029 30.1296 241.004 29.052 243.604 28.0295C246.203 27.0071 248.744 26.1761 251.233 25.5302C253.721 24.8843 255.451 24.5597 256.429 24.55C256.956 24.5045 257.433 24.5402 257.855 24.6636C258.28 24.7869 258.65 24.9524 258.964 25.1634C259.277 25.3744 259.523 25.5594 259.696 25.7185C259.752 25.7996 259.81 25.8678 259.869 25.9197C259.895 25.9165 259.912 25.9327 259.912 25.9587L259.954 25.9976L260.955 28.1626L262.368 25.66C262.603 25.2933 263.032 25.0076 263.653 24.8031C264.271 24.5986 264.902 24.485 265.543 24.4623ZM131.395 10.8037C130.917 11.4724 130.332 12.2774 129.642 13.2154L129.649 13.2187L123.625 23.534C124.763 24.1572 125.737 24.6506 126.545 25.0076C127.353 25.3679 128.151 25.6276 128.939 25.7931C131.104 26.1859 133.144 25.9587 135.067 25.1115C135.947 24.7447 136.931 24.0111 138.02 22.9043C139.109 21.8007 140.087 20.5803 140.96 19.2462C141.588 18.0875 142 16.7437 142.193 15.2116C142.389 13.6828 142.461 12.2254 142.409 10.8427C142.363 9.57031 142.186 8.39856 141.882 7.33067C141.578 6.26278 141.12 5.0748 140.515 3.76672C140.45 3.57521 140.375 3.43888 140.29 3.35774C140.201 3.27659 140.11 3.23115 140.012 3.22141C139.914 3.21167 139.623 3.33177 139.145 3.58495C138.664 3.83813 138.148 4.18219 137.592 4.61713L137.22 4.91006C136.754 5.27708 136.234 5.68691 135.659 6.14269C134.927 6.7237 134.358 7.21382 133.955 7.61631C133.658 7.90194 133.278 8.34013 132.811 8.92439C132.343 9.50864 131.872 10.1351 131.395 10.8037ZM151.32 61.2217C152.415 60.3356 153.442 59.4332 154.4 58.5114H154.397C155.352 57.5928 156.418 56.473 157.599 55.1552C156.176 54.3762 154.996 53.6231 154.064 52.8961C153.128 52.169 152.288 51.2926 151.539 50.2669C150.79 49.2445 150.342 48.0889 150.198 46.8068C150.054 45.5247 150.414 44.1485 151.281 42.6748C149.518 44.7879 148.066 46.6413 146.925 48.235C145.783 49.8287 144.763 51.4581 143.861 53.1233C142.958 54.7884 142.448 56.249 142.327 57.4987C142.137 59.9168 142.539 61.7086 143.53 62.8771C144.524 64.0456 146.048 64.1754 148.109 63.2698C149.152 62.7894 150.224 62.1078 151.32 61.2217ZM166.765 41.9835C167.543 40.7371 168.38 39.4452 169.28 38.1112V38.1079C169.888 37.225 170.185 36.6343 170.176 36.3292C170.166 36.0241 169.979 35.9137 169.62 35.9949C169.26 36.0793 168.828 36.2545 168.321 36.5207C167.814 36.7901 167.373 37.0433 166.99 37.277C166.879 37.3354 166.784 37.3938 166.703 37.4523C166.238 37.7476 165.63 38.3092 164.881 39.1401C164.129 39.971 163.413 40.7987 162.733 41.6264C162.053 42.4541 161.604 43.0092 161.392 43.2948C161.209 43.5804 161.052 44.0413 160.921 44.684C160.79 45.3267 160.744 46.0083 160.787 46.7257C160.826 47.4463 161.009 48.063 161.336 48.5758C161.542 48.8744 161.771 48.9913 162.02 48.9264C162.268 48.8615 162.991 48.0045 164.185 46.3556C165.126 44.6873 165.986 43.2299 166.765 41.9835ZM247.345 43.324C249.274 40.8442 250.831 38.5591 252.008 36.4655L252.005 36.4623C252.721 35.4398 252.283 34.9237 250.693 34.9107C249.104 34.901 247.567 35.2678 246.089 36.0143C244.611 36.7609 243.143 37.5983 241.684 38.5234C240.222 39.4485 239.173 40.2275 238.525 40.8604C237.632 41.6102 236.74 42.5158 235.844 43.5739C234.948 44.6321 234.189 45.5961 233.564 46.4628C232.94 47.3294 232.577 47.8487 232.472 48.0175C232.341 48.2188 231.913 48.9458 231.193 50.2052C230.471 51.4646 229.679 52.8701 228.816 54.4249C227.956 55.9796 227.236 57.3202 226.664 58.4497C226.141 59.4657 225.879 60.1343 225.879 60.4524C225.876 60.7738 226.046 60.8776 226.393 60.7673C226.739 60.6601 227.142 60.4589 227.606 60.1635C227.907 59.9673 228.371 59.6683 228.996 59.2653L229.005 59.2598C229.505 58.9372 230.109 58.5484 230.814 58.0927C232.407 57.067 234.078 55.8628 235.827 54.4833C237.577 53.1038 239.451 51.5198 241.449 49.7281C243.45 47.9396 245.412 45.8038 247.345 43.324Z" fill="#F0A919"/>
<path fill-rule="evenodd" clip-rule="evenodd" d="M357.703 36.2643C358.017 36.4753 358.317 36.6732 358.602 36.855V36.8615C359.344 37.277 359.514 37.9586 359.119 38.8999C358.72 39.8445 358.2 40.6981 357.559 41.4706L357.441 41.7238C356.486 43.0871 354.926 44.8885 352.765 47.1282C350.603 49.3678 348.249 51.7373 345.704 54.2398C343.16 56.7424 341.319 58.4173 340.178 59.2612C338.245 60.605 336.505 61.5138 334.962 61.9845C333.415 62.4551 331.133 62.6499 328.117 62.5655C325.714 62.5135 323.827 62.0169 322.454 61.0691C321.08 60.1213 320.142 59.2677 319.638 58.5114C319.252 57.9142 319.036 56.7099 318.981 54.8987C318.928 53.0876 320.72 49.634 324.354 44.5445L324.422 44.4471C323.157 44.0381 321.705 43.4603 320.057 42.7073C318.82 44.6905 317.64 46.3881 316.522 47.8001C315.403 49.212 314.118 50.6791 312.666 52.1982C310.246 54.6423 306.914 56.9923 302.672 59.2514C298.431 61.5138 295.586 62.7375 294.144 62.929C292.702 63.1205 290.197 63.3088 286.632 63.4938C284.794 63.5619 283.271 63.3185 282.064 62.7667C280.857 62.2149 279.768 61.2509 278.797 59.8747C277.94 57.8265 277.669 55.9894 277.986 54.3567C278.3 52.7273 284.369 42.3892 296.194 23.3457C296.521 23.0569 297.044 22.914 297.77 22.914C298.493 22.9173 299.167 23.0017 299.788 23.1737L301.95 23.9268C302.434 24.1864 302.81 24.5402 303.078 24.9882C303.343 25.4361 303.444 25.8678 303.376 26.2865C302.12 28.5489 300.318 31.8564 297.967 36.2058C296.194 39.5686 294.458 42.8014 292.761 45.911C291.06 49.0205 289.749 51.2958 288.827 52.7435C288.3 53.5939 287.967 54.2269 287.829 54.6488C287.692 55.0708 287.891 55.3629 288.428 55.522C288.964 55.681 289.67 55.6907 290.543 55.5479C291.417 55.4051 292.581 54.9896 294.033 54.2983C296.829 52.948 299.307 51.3153 301.469 49.3938C303.631 47.4755 305.347 45.8655 306.626 44.5737C307.905 43.2818 309.209 41.7368 310.537 39.9451C310.975 39.0135 311.08 38.4293 310.848 38.1891C310.616 37.9489 310.259 37.4847 309.772 36.7966C309.288 36.1085 308.788 35.3035 308.281 34.3784C307.807 33.6773 307.404 32.736 307.067 31.5578C306.731 30.3795 306.593 29.1493 306.659 27.8737C306.685 27.098 306.737 26.4163 306.812 25.8321C306.891 25.2478 307.09 24.4915 307.421 23.5665C307.627 23.1445 307.878 22.7615 308.173 22.4174C308.735 21.7585 309.481 21.1645 310.41 20.6322C311.966 19.6877 314.2 18.9963 317.113 18.5581C318.533 18.4802 319.779 18.6198 320.854 18.9833C321.927 19.3436 322.784 19.8207 323.418 20.405C324.03 21.0185 324.533 21.7001 324.939 22.4466C325.344 23.1932 325.629 23.9235 325.796 24.6376C325.933 25.4101 326.054 26.5267 326.149 27.9906C326.244 29.4545 326.139 30.5938 325.835 31.4085C325.596 32.4406 325.122 33.6221 324.419 34.9497C323.896 35.9137 323.399 36.7739 322.924 37.5399C324.775 38.2702 326.554 38.7863 328.268 39.0947C334.481 30.4347 337.751 25.8515 338.085 25.3517C338.484 24.7544 338.896 24.2221 339.324 23.7482C339.753 23.2743 340.181 22.768 340.606 22.2259C341.427 21.0055 342.699 20.8692 344.422 21.8169C346.146 22.7647 347.238 23.4723 347.702 23.9397C348.167 24.4071 348.288 25.0336 348.065 25.8158L346.071 29.6265C343.33 34.0766 340.129 38.9713 336.463 44.3108C332.794 49.6502 330.596 53.0129 329.867 54.3956C329.452 55.2136 329.239 55.8401 329.226 56.2685C329.213 56.7002 329.632 57.0443 330.479 57.3039C331.326 57.5636 332.258 57.3689 333.281 56.7229C334.305 56.077 335.188 55.4765 335.936 54.9215C336.685 54.3697 337.536 53.6718 338.497 52.8344C339.458 51.997 340.397 51.1433 341.313 50.2799C342.228 49.4165 342.967 48.657 343.53 47.9981C350.394 40.4092 354.079 36.3422 354.589 35.7969C355.073 35.3652 355.57 35.2353 356.081 35.4106C356.587 35.5859 357.13 35.8683 357.703 36.2643ZM320.698 27.1045C320.874 26.6565 321.083 26.0917 321.325 25.4198L321.329 25.4166C321.567 24.7447 321.567 24.2189 321.332 23.8391C320.655 23.6411 319.919 23.5859 319.128 23.6703C318.333 23.7547 317.44 23.9268 316.446 24.1832C315.151 24.6181 314.049 25.3647 313.14 26.4228C312.362 27.257 311.943 28.3931 311.884 29.8342C311.852 30.4996 312.113 31.178 312.669 31.8629C313.225 32.5478 314.196 33.4631 315.576 34.6024C317.66 32.0609 318.869 30.5126 319.213 29.9608C319.553 29.409 319.857 28.8734 320.115 28.3509C320.374 27.8283 320.57 27.4128 320.698 27.1045Z" fill="#F0A919"/>
<path d="M348.546 18.5678C349.517 19.1424 350.381 19.1229 351.139 18.5159C352.519 16.5814 353.53 15.0558 354.171 13.9392C354.812 12.8227 355.237 11.9982 355.44 11.4627C355.642 10.9303 355.348 10.4694 354.55 10.0832L352.801 9.14835C351.947 8.68095 351.251 8.37259 350.714 8.22653C350.178 8.08046 349.697 8.27846 349.272 8.82052C347.339 11.6055 345.92 13.6244 345.018 14.874C344.73 15.4388 344.906 16.0263 345.544 16.643C346.345 17.2241 347.346 17.8635 348.546 18.5678Z" fill="#F0A919"/>
<path d="M317.915 67.814C319.474 67.4407 321.175 67.3142 323.006 67.4407C324.838 67.5673 325.926 67.8952 326.267 68.4242C326.607 68.9501 326.41 69.8524 325.675 71.1248C324.942 72.4004 324.184 73.2443 323.405 73.6598C322.624 74.0753 321.469 74.3447 319.939 74.4713C318.408 74.5946 316.894 74.5622 315.393 74.3674C313.896 74.1727 313.268 73.6014 313.51 72.6504C313.755 71.6993 314.157 70.7483 314.723 69.8005C315.289 68.8527 316.351 68.1905 317.915 67.814Z" fill="#F0A919"/>
<path d="M219.149 81.1252C217.727 81.1252 216.684 82.2321 216.684 83.5272V112.792C216.684 114.178 217.727 115.194 219.149 115.194H220.477V118.148H198.368V115.194H199.695C201.023 115.194 202.161 114.178 202.161 112.792V109.838H184.891V112.792C184.891 114.178 185.935 115.194 187.262 115.194H188.685V118.148H166.48V115.194H167.903C169.231 115.194 170.274 114.178 170.274 112.792V83.5272C170.274 82.2353 169.231 81.1252 167.903 81.1252H166.48V78.1715H188.685V81.1252H187.262C185.935 81.1252 184.891 82.2321 184.891 83.5272V104.667H202.161V83.5272C202.161 82.2353 201.023 81.1252 199.695 81.1252H198.368V78.1715H220.477V81.1252H219.149Z" fill="#CF412D"/>
<path fill-rule="evenodd" clip-rule="evenodd" d="M216.684 86.8978V92.1154C216.109 92.2415 215.527 92.3541 214.937 92.4532C211.886 92.9661 209.038 93.2711 206.389 93.3686C204.845 93.4228 203.437 93.1808 202.161 92.638V83.527C202.161 83.4915 201.754 82.2665 201.752 82.2314C202.117 82.5814 202.914 84.159 203.332 84.5852C204.712 85.9874 206.029 87.1495 207.292 88.0745C208.698 89.1586 209.78 89.7007 210.532 89.7007C211.285 89.7007 212.318 89.3177 213.629 88.5484C214.179 88.2531 214.836 87.9091 215.601 87.5228C215.959 87.3279 216.32 87.1195 216.684 86.8978Z" fill="#F0A919"/>
<path d="M107.192 115.19V118.144H93.3399V115.19H95.3315C96.3746 115.19 97.4178 114.174 96.9436 113.158L95.9005 109.65H75.7857L74.7426 113.158C74.2684 114.174 74.7426 115.19 76.3548 115.19H77.3031V118.144H52.6331V115.19H57.2832C58.3264 115.19 58.8006 114.635 58.8006 114.174L73.2219 78.1713H93.8108V80.6641C93.8108 80.7583 90.2039 79.6482 90.2039 82.6019L102.539 114.174C102.539 114.635 103.108 115.19 104.056 115.19H107.189H107.192ZM91.44 66.0905V72.0788H70.7562V67.9373L91.44 66.0905ZM93.3367 104.667L86.126 84.6338L78.3463 104.667H93.3367Z" fill="#CF412D"/>
</svg>
